<svg width="677" height="129" viewBox="0 0 677 129" fill="none" xmlns="http://www.w3.org/2000/svg">
<g clip-path="url(#clip0_419_180)">
<path d="M355.586 111.511H313.165V96.595L317.134 95.5717C317.134 95.3546 317.134 95.1376 317.134 94.8585V45.4912H313.041V28.808H321.072C322.282 28.808 323.708 28.653 325.352 28.3739C327.212 28.0328 329.135 27.6296 331.057 27.1335C332.98 26.6373 334.747 26.1102 336.329 25.583C338.127 24.9628 338.934 24.5907 339.213 24.4357L340.949 23.5364H351.586V24.2186C353.291 23.7845 355.028 23.5364 356.764 23.5364C360.888 23.5364 364.609 24.3426 367.772 25.9861C370.842 27.5366 373.447 29.6143 375.525 32.2191C376.703 33.6455 377.726 35.196 378.626 36.8395C379.432 35.6921 380.331 34.6068 381.293 33.5835C384.207 30.4825 387.65 28.0018 391.588 26.2342C395.588 24.4357 399.96 23.5364 404.643 23.5364C410.41 23.5364 415.496 24.4977 419.744 26.3893C421.295 27.0715 422.752 27.8777 424.086 28.746H428.272C429.481 28.746 430.908 28.5909 432.551 28.3119C434.443 27.9707 436.365 27.5676 438.257 27.0715C440.211 26.5753 441.978 26.0482 443.529 25.521C445.358 24.9008 446.133 24.5287 446.381 24.4046L448.149 23.4744H458.785V24.0325C460.429 23.6604 462.165 23.4744 463.964 23.4744C468.522 23.4744 472.491 24.5597 475.747 26.6994C478.414 28.4359 480.523 30.6376 482.104 33.2424C484.926 30.2965 488.275 27.9397 492.058 26.2652C496.059 24.4667 500.431 23.5674 505.113 23.5674C510.881 23.5674 515.967 24.5287 520.215 26.4203C521.765 27.1025 523.223 27.9087 524.556 28.777H525.114C523.471 25.8621 522.665 22.6991 522.665 19.2881C522.665 15.877 523.564 12.4349 525.331 9.48902C527.068 6.60512 529.394 4.31041 532.247 2.63589C538.169 -0.899205 545.922 -0.868195 551.814 2.63589C554.666 4.31041 556.961 6.63613 558.667 9.45801C560.434 12.4039 561.333 15.6909 561.333 19.257C561.333 22.389 560.651 25.3349 559.256 28.0328V28.6219C559.907 28.5599 560.62 28.4359 561.364 28.3119C563.256 27.9707 565.179 27.5676 567.07 27.0715C569.024 26.5753 570.791 26.0482 572.342 25.521C574.171 24.9008 574.947 24.5287 575.195 24.4046L576.962 23.4744H587.598V24.0325C589.242 23.6604 590.978 23.4744 592.777 23.4744C597.335 23.4744 601.305 24.5597 604.561 26.6994C606.607 28.0328 608.375 29.6763 609.77 31.5369C610.483 30.7616 611.259 30.0484 612.127 29.3662C614.453 27.5056 617.337 26.0171 620.717 24.9938C623.848 24.0015 627.57 23.5054 631.725 23.5054C636.469 23.5054 640.687 24.1566 644.253 25.459C647.943 26.7924 651.106 28.653 653.618 30.9477C656.036 33.1804 657.959 35.6611 659.385 38.39C660.688 40.8707 661.618 43.4135 662.176 45.8943C662.703 48.251 662.951 50.3597 662.951 52.3133V69.5236C662.951 69.5236 662.951 69.6477 662.951 69.7097H667.603V83.0128L663.572 85.3385C661.711 86.3929 659.571 87.4782 657.215 88.5325C654.021 89.928 650.393 90.6412 646.392 90.6412C642.392 90.6412 638.95 89.5559 636.066 87.4162C635.756 87.1991 635.477 86.951 635.198 86.703C631.508 89.3078 627.198 90.6412 622.329 90.6412C618.763 90.6412 615.414 89.8039 612.313 88.1294C609.15 86.3929 606.576 83.9741 604.654 80.9042C602.669 77.6792 601.677 73.989 601.677 69.8647C601.677 67.2289 602.018 64.7482 602.669 62.5155C598.08 64.314 592.157 64.221 587.629 62.2364V72.8727C587.629 73.1208 587.629 73.3688 587.629 73.5859L591.599 74.6092V89.4938H520.835V87.2301C519.378 87.9744 517.827 88.6256 516.184 89.1527C508.772 91.5405 500.307 91.0753 493.268 88.0364C489.267 86.2998 485.701 83.9121 482.631 80.8732C479.562 77.8032 477.174 74.2371 475.437 70.2369C474.414 67.8491 473.67 65.3373 473.236 62.7635C468.739 64.376 463.095 64.19 458.754 62.2674V72.9037C458.754 73.1518 458.754 73.3998 458.754 73.6169L462.723 74.6402V89.5248H420.302V87.2611C418.845 88.0054 417.295 88.6566 415.651 89.1837C408.271 91.5715 399.805 91.1063 392.735 88.0674C388.735 86.3308 385.169 83.9431 382.099 80.9042C380.269 79.0746 378.657 77.028 377.292 74.8573C376.362 76.3458 375.339 77.7412 374.222 79.0436C371.339 82.3616 367.803 84.9974 363.741 86.827C360.02 88.5015 355.927 89.4318 351.492 89.5558V94.9515C351.492 95.2306 351.492 95.4477 351.492 95.6647L355.462 96.6881V111.573L355.586 111.511ZM333.228 95.4167H335.523C335.523 95.2306 335.523 95.0446 335.523 94.8585V46.8246C335.523 45.3051 335.647 43.8477 335.926 42.4832C335.647 42.5453 335.399 42.6383 335.119 42.7003C334.468 42.8554 333.817 43.0414 333.135 43.1965C333.197 43.9407 333.228 44.747 333.228 45.5532V94.8585C333.228 95.0446 333.228 95.2306 333.228 95.4167ZM645.71 74.4852C645.71 74.4852 646.64 74.5472 647.323 74.4852C647.013 72.9347 646.858 71.2602 646.858 69.4926V52.2823C646.858 51.7551 646.796 50.7938 646.454 49.2744C646.206 48.189 645.772 47.0417 645.121 45.8013C644.842 45.2741 644.501 44.747 644.098 44.2508V69.6167C644.098 70.0508 644.098 70.4849 644.005 70.9191H644.129C644.191 71.7563 644.408 72.5626 644.78 73.3688C644.997 73.803 645.245 74.1441 645.648 74.4542L645.71 74.4852ZM620.003 64.097C619.352 64.6551 618.825 65.3994 618.36 66.3607C617.988 67.1669 617.771 68.3763 617.771 69.8337C617.771 70.9501 617.957 71.7563 618.329 72.3765C618.763 73.0587 619.29 73.5549 620.003 73.958C620.872 74.4232 621.926 74.5782 622.887 74.5162C622.05 73.3068 621.368 71.9734 620.903 70.4849C620.313 68.5623 620.003 66.6397 620.003 64.7482C620.003 64.5311 620.003 64.314 620.003 64.097ZM388.456 56.7477C388.456 56.7477 388.456 56.9647 388.456 57.0888C388.456 59.5075 388.89 61.7092 389.789 63.8179C390.719 65.9575 391.96 67.8181 393.572 69.4306C395.185 71.0121 397.014 72.2525 399.185 73.1828C401.077 73.989 403.061 74.4232 405.232 74.5162C404.705 74.2991 404.209 74.051 403.712 73.772C400.301 72.0044 397.355 69.5857 394.937 66.5777H394.441L392.704 63.4147L388.456 56.7167V56.7477ZM488.957 56.7477C488.957 56.7477 488.957 56.9647 488.957 57.0888C488.957 59.5075 489.392 61.7092 490.291 63.8179C491.221 65.9575 492.461 67.8181 494.074 69.4306C495.686 71.0121 497.516 72.2525 499.687 73.1828C501.578 73.989 503.563 74.4232 505.733 74.5162C505.206 74.2991 504.71 74.051 504.214 73.772C500.803 72.0044 497.857 69.5857 495.438 66.5777H494.942L493.206 63.4147L488.957 56.7167V56.7477ZM569.272 73.3688H571.567C571.567 73.1828 571.567 73.0277 571.567 72.8417V44.902C571.567 44.0957 571.629 43.2895 571.722 42.5143C571.536 42.5763 571.35 42.6073 571.163 42.6693C570.512 42.8244 569.861 43.0104 569.179 43.1655C569.241 43.9097 569.272 44.7159 569.272 45.5222V72.8417C569.272 73.0277 569.272 73.1828 569.272 73.3688ZM540.898 73.3688H543.193C543.193 73.1828 543.193 73.0277 543.193 72.8417V42.4832C542.79 42.5763 542.387 42.7003 541.984 42.7933C541.58 42.8864 541.177 42.9794 540.774 43.1034C540.836 43.8787 540.867 44.6849 540.867 45.5222V72.8417C540.867 73.0277 540.867 73.1828 540.867 73.3688H540.898ZM440.428 73.3688H442.722C442.722 73.1828 442.722 73.0277 442.722 72.8417V44.902C442.722 44.0957 442.784 43.2895 442.877 42.5143C442.691 42.5763 442.505 42.6073 442.319 42.6693C441.668 42.8244 441.017 43.0104 440.335 43.1655C440.397 43.9097 440.428 44.7159 440.428 45.5222V72.8417C440.428 73.0277 440.428 73.1828 440.428 73.3688ZM361.478 40.9018C361.664 41.2429 361.819 41.584 361.974 41.9251C362.873 43.9097 363.586 46.1734 364.051 48.5301C364.485 50.8248 364.734 53.0885 364.734 55.3212C364.734 58.8563 364.516 62.2984 364.082 65.5544C364.082 65.6474 364.082 65.7405 364.051 65.8335C364.64 64.8102 365.137 63.6938 365.571 62.4845C366.408 60.0347 366.842 57.3369 366.842 54.422C366.842 53.2436 366.718 51.8792 366.439 50.2977C366.191 48.8402 365.757 47.3518 365.168 45.8943C364.641 44.5919 363.958 43.4445 363.09 42.3592C362.625 41.801 362.098 41.3049 361.478 40.9018ZM518.851 47.7859C518.851 47.972 518.819 48.158 518.788 48.3131C518.788 48.158 518.851 47.972 518.851 47.7859ZM418.38 47.8479C418.38 47.8479 418.38 48.127 418.318 48.282C418.318 48.158 418.349 48.003 418.38 47.8479ZM593.18 45.1811C593.18 45.1811 593.18 45.2741 593.18 45.3051C593.18 46.6385 593.552 47.0107 593.707 47.1967C593.831 47.3208 594.203 47.6929 595.537 47.6929C596.777 47.6929 597.087 47.3518 597.273 47.1657C597.739 46.6695 597.987 45.7393 597.987 44.4058C597.987 43.5066 597.801 42.7003 597.366 41.8631C597.149 41.3979 596.777 40.8087 595.816 40.1885C595.599 40.0335 595.289 39.9095 594.948 39.8164C594.793 41.553 594.296 43.1965 593.428 44.6539C593.335 44.809 593.242 44.995 593.149 45.1811H593.18ZM464.336 45.1811C464.336 45.1811 464.336 45.2741 464.336 45.3051C464.336 46.6385 464.708 47.0107 464.863 47.1967C464.987 47.3208 465.359 47.6929 466.693 47.6929C467.933 47.6929 468.243 47.3518 468.429 47.1657C468.894 46.6695 469.142 45.7393 469.142 44.4058C469.142 43.5066 468.956 42.7003 468.522 41.8631C468.305 41.3979 467.933 40.8087 466.972 40.1885C466.755 40.0335 466.445 39.9095 466.103 39.8164C465.948 41.553 465.452 43.1965 464.584 44.6539C464.491 44.809 464.398 44.995 464.305 45.1811H464.336ZM542.015 16.0631C541.425 16.0631 540.96 16.1871 540.495 16.4662C539.875 16.8383 539.472 17.2414 539.131 17.7996C538.976 18.0477 538.759 18.4818 538.759 19.2881C538.759 20.0943 538.976 20.5905 539.162 20.9006C539.472 21.4277 539.875 21.8308 540.464 22.172C540.929 22.451 541.394 22.5751 542.015 22.5751C542.821 22.5751 543.286 22.358 543.596 22.172C544.154 21.8308 544.557 21.4277 544.898 20.8695C545.084 20.5595 545.302 20.0943 545.302 19.2881C545.302 18.4818 545.084 18.0477 544.929 17.7686C544.588 17.2104 544.185 16.8073 543.627 16.4662C543.131 16.1871 542.666 16.0631 542.046 16.0631H542.015ZM285.659 90.6102C281.69 90.6102 278.217 89.5248 275.333 87.3852C275.023 87.1681 274.744 86.92 274.434 86.672C270.744 89.2768 266.434 90.6102 261.565 90.6102C258.65 90.6102 255.89 90.052 253.286 88.9357V89.4628H153.342V74.5782L157.311 73.5549C157.311 73.3378 157.311 73.1208 157.311 72.8417V61.9263C152.474 64.283 145.962 64.376 141.031 62.2054V72.8417C141.031 73.0897 141.031 73.3378 141.031 73.5549L145.001 74.5782V89.4628H103.758C101.215 90.2381 98.4553 90.6412 95.4784 90.6412C91.5092 90.6412 88.0361 89.5559 85.1523 87.4162C84.8422 87.1991 84.5631 86.951 84.253 86.703C80.5629 89.3078 76.2526 90.6412 71.3841 90.6412C67.818 90.6412 64.469 89.8039 61.368 88.1294C58.7322 86.672 56.4995 84.7494 54.732 82.3616C53.8947 83.1989 52.9645 83.9741 52.0032 84.7183C49.4604 86.6099 46.5455 88.0984 43.3515 89.1217C35.9713 91.5095 27.5057 91.0443 20.4355 88.0054C16.4353 86.2688 12.8692 83.8811 9.7993 80.8421C6.76037 77.7722 4.34163 74.2061 2.6051 70.2058C0.837564 66.1126 -0.0307007 61.7092 -0.0307007 57.1198C-0.0307007 52.5304 0.744536 48.3441 2.264 44.3748C3.81447 40.3436 6.04715 36.7155 8.90002 33.6455C11.8149 30.5135 15.288 28.0018 19.2262 26.2342C25.9242 23.2263 34.1107 22.7611 41.677 24.7768C44.902 25.614 47.8789 26.9474 50.5457 28.746C52.9334 30.3585 54.9491 32.3121 56.5616 34.6068C57.7709 32.7152 59.3214 30.9787 61.244 29.4282C63.5697 27.5676 66.4536 26.0792 69.8336 25.0558C73.0276 24.0635 76.6247 23.5674 80.842 23.5674C85.5864 23.5674 89.8037 24.2186 93.3698 25.521C96.9359 26.8234 100.006 28.5909 102.487 30.7926V28.839H110.518C111.727 28.839 113.154 28.684 114.797 28.4049C116.72 28.0638 118.642 27.6607 120.503 27.1645C122.457 26.6683 124.255 26.1412 125.775 25.614C127.604 24.9938 128.379 24.6217 128.659 24.4667L130.395 23.5674H141.031V24.1256C142.675 23.7534 144.411 23.5674 146.241 23.5674C150.024 23.5674 153.373 24.3116 156.257 25.7691C155.544 23.7534 155.203 21.5828 155.203 19.3501C155.203 15.784 156.102 12.4969 157.869 9.55104C159.606 6.69815 161.901 4.40344 164.785 2.69791C170.707 -0.837185 178.429 -0.806176 184.352 2.69791C187.204 4.37243 189.53 6.69815 191.205 9.55104C192.972 12.4969 193.871 15.784 193.871 19.3501C193.871 22.482 193.158 25.428 191.794 28.1258V28.684C192.321 28.622 192.91 28.5289 193.53 28.4359C195.329 28.1258 197.127 27.7227 198.895 27.2885C200.725 26.8234 202.43 26.3272 203.981 25.8311C205.283 25.397 206.399 25.0248 207.33 24.6837L208.756 23.5984H220.136V24.5597C222.369 23.9085 224.695 23.5984 227.114 23.5984C231.672 23.5984 235.548 24.4977 238.649 26.2962C241.781 28.0948 244.231 30.5135 245.874 33.4595C246.122 33.8936 246.37 34.3587 246.587 34.8239C247.797 32.8393 249.409 31.0407 251.394 29.4592C253.72 27.5986 256.604 26.1102 259.984 25.0869C263.178 24.0945 266.775 23.5984 270.992 23.5984C275.736 23.5984 279.954 24.2496 283.52 25.552C287.21 26.8854 290.373 28.746 292.885 31.0407C295.303 33.2734 297.257 35.7542 298.652 38.483C299.955 40.9638 300.885 43.4756 301.443 45.9873C301.97 48.3751 302.218 50.4527 302.218 52.4063V69.8027H306.87V83.1058L302.839 85.4316C300.978 86.4859 298.838 87.5712 296.482 88.6256C293.319 90.021 289.691 90.7342 285.659 90.7342V90.6102ZM285.008 74.4852C285.008 74.4852 285.97 74.5162 286.59 74.4852C286.28 72.9347 286.125 71.2602 286.125 69.4926V52.2823C286.125 51.7551 286.063 50.7938 285.721 49.2744C285.473 48.189 285.039 47.0417 284.388 45.8013C284.109 45.2741 283.768 44.747 283.365 44.2508V69.6167C283.365 70.0508 283.334 70.4849 283.272 70.9191H283.396C283.458 71.7563 283.675 72.5626 284.047 73.3998C284.264 73.834 284.543 74.2061 284.915 74.4852H285.008ZM259.239 64.097C258.588 64.6551 258.061 65.3994 257.596 66.3607C257.224 67.1669 257.007 68.3763 257.007 69.8337C257.007 70.9191 257.193 71.7563 257.565 72.3765C257.999 73.0587 258.526 73.5859 259.239 73.958C260.108 74.4232 261.162 74.5782 262.123 74.5162C261.255 73.3068 260.604 71.9424 260.139 70.4849C259.549 68.5623 259.239 66.6708 259.239 64.7482C259.239 64.5311 259.239 64.314 259.239 64.097ZM94.8272 74.4852C94.8272 74.4852 95.7885 74.5162 96.4087 74.4852C96.0986 72.9347 95.9436 71.2602 95.9436 69.4926V52.2823C95.9436 51.7551 95.8815 50.7938 95.5404 49.2744C95.2924 48.189 94.8582 47.0417 94.207 45.8013C93.9279 45.2741 93.5868 44.747 93.1837 44.2508V69.6167C93.1837 70.0508 93.1527 70.4849 93.0907 70.9191H93.2147C93.2767 71.7563 93.4938 72.5626 93.8659 73.3998C94.083 73.834 94.3621 74.2061 94.7342 74.4852H94.8272ZM69.0894 64.097C68.4382 64.6551 67.911 65.3994 67.4459 66.3607C67.0738 67.1669 66.8567 68.3763 66.8567 69.8337C66.8567 70.9191 67.0427 71.7563 67.4149 72.3765C67.849 73.0587 68.3762 73.5859 69.0894 73.958C69.9576 74.4232 71.012 74.5782 71.9733 74.5162C71.136 73.3068 70.4538 71.9734 69.9886 70.4849C69.3995 68.5623 69.0894 66.6708 69.0894 64.7482C69.0894 64.5311 69.0894 64.314 69.0894 64.097ZM16.4663 53.0575C16.2183 54.3599 16.0942 55.6933 16.0942 57.1198C16.0942 59.5385 16.5283 61.7402 17.4276 63.8489C18.3579 65.9885 19.5983 67.8491 21.2108 69.4616C22.8233 71.0741 24.6528 72.3145 26.8235 73.2138C28.6841 74.02 30.6687 74.4542 32.8393 74.5472C31.9711 74.1751 31.1338 73.7409 30.3276 73.2758C25.6761 70.64 22.048 66.7948 19.4742 61.8333C18.1098 59.1974 17.1175 56.2515 16.4973 53.0575H16.4663ZM230.928 73.3688H233.222C233.222 73.1828 233.222 73.0277 233.222 72.8417V47.8479C233.222 46.7316 233.098 45.4602 232.85 44.0337C232.664 43.0414 232.354 42.1111 231.858 41.2429C231.765 41.0878 231.548 40.6847 230.649 40.1575C230.587 40.1575 230.494 40.0645 230.339 40.0025C230.37 40.1885 230.401 40.3746 230.432 40.5296C230.742 42.1421 230.897 43.8477 230.897 45.4912V72.8107C230.897 72.9967 230.897 73.1518 230.897 73.3378L230.928 73.3688ZM201.779 73.3688H204.074C204.074 73.1828 204.074 73.0277 204.074 72.8417V45.8323C204.074 44.6849 204.167 43.5376 204.384 42.4212C203.887 42.5453 203.391 42.7003 202.864 42.8244C202.461 42.9174 202.058 43.0104 201.655 43.1345C201.717 43.9097 201.748 44.7159 201.748 45.5532V72.8727C201.748 73.0587 201.748 73.2138 201.748 73.3998L201.779 73.3688ZM173.436 73.3688H175.731C175.731 73.1828 175.731 73.0277 175.731 72.8417V42.4832C175.328 42.5763 174.925 42.7003 174.522 42.7933C174.118 42.8864 173.715 42.9794 173.312 43.1034C173.374 43.8787 173.405 44.6849 173.405 45.5222V72.8417C173.405 73.0277 173.405 73.1828 173.405 73.3688H173.436ZM122.674 73.3688H124.968C124.968 73.1828 124.968 73.0277 124.968 72.8417V44.902C124.968 44.0957 125.03 43.2895 125.123 42.5143C124.937 42.5763 124.751 42.6073 124.565 42.6693C123.914 42.8244 123.263 43.0104 122.581 43.1655C122.643 43.9097 122.674 44.7159 122.674 45.5222V72.8417C122.674 73.0277 122.674 73.1828 122.674 73.3688ZM39.2273 40.8397C39.1032 41.1808 39.0102 41.4909 38.8552 41.801C38.452 42.7933 37.9559 43.8787 37.3667 44.995C37.1496 45.3982 36.9636 45.8633 36.7775 46.4215C36.7775 46.4215 36.6535 46.8246 36.6535 47.7549C36.6535 48.6852 36.8705 49.1813 37.0256 49.4604C37.1496 49.7085 37.3357 49.9256 37.7388 50.1426C38.204 50.3907 38.9792 50.5458 39.9405 50.5458C41.0258 50.5458 41.9251 50.3597 42.6383 49.9876C43.1655 49.7395 43.5066 49.3984 43.7857 48.9332C43.9097 48.7162 44.2508 48.158 44.2508 46.8246C44.2508 45.7393 44.0647 44.902 43.6616 44.2508C43.1345 43.3515 42.4523 42.6383 41.553 42.0491C40.8088 41.553 40.0335 41.1498 39.1653 40.8087L39.2273 40.8397ZM146.582 45.1811V45.3051C146.582 46.6385 146.954 47.0107 147.109 47.1967C147.264 47.3208 147.605 47.6929 148.939 47.6929C150.179 47.6929 150.489 47.3518 150.675 47.1657C151.14 46.6695 151.388 45.7393 151.388 44.4058C151.388 43.5066 151.202 42.7003 150.768 41.8631C150.551 41.4289 150.179 40.8087 149.218 40.1885C149.001 40.0335 148.691 39.9095 148.35 39.8164C148.194 41.553 147.698 43.1965 146.83 44.6539C146.737 44.809 146.644 44.995 146.551 45.1811H146.582ZM174.522 16.0631C173.932 16.0631 173.467 16.1871 173.002 16.4662C172.382 16.8383 171.979 17.2414 171.638 17.7996C171.483 18.0787 171.266 18.5128 171.266 19.2881C171.266 20.0633 171.483 20.5595 171.669 20.8695C171.979 21.4277 172.413 21.8308 172.971 22.172C174.087 22.8232 175.545 22.5131 176.103 22.172C176.661 21.8308 177.064 21.4587 177.374 20.9006C177.56 20.5905 177.778 20.1253 177.778 19.2881C177.778 18.4508 177.591 18.0477 177.405 17.7686C177.064 17.2104 176.661 16.8073 176.103 16.4662C175.607 16.1871 175.142 16.0631 174.522 16.0631Z" fill="#F2BBF2"/>
<g clip-path="url(#clip1_419_180)">
<path d="M32.3119 31.5367C42.2969 31.5367 52.344 36.6843 52.344 46.8555C52.344 54.1428 47.0724 58.6081 39.9712 58.6081C32.8701 58.6081 28.6218 53.9567 28.6218 47.7548C28.6218 41.925 31.9398 39.9093 31.9398 36.1262C31.9398 34.3586 31.2576 32.8702 29.49 32.8702C25.4588 32.8702 23.7843 40.3435 23.7843 45.0569C23.7843 60.4377 32.8391 69.0274 45.4909 69.0274C48.2508 69.0274 50.7005 68.4692 53.2743 67.4459C53.2743 76.0355 43.7234 82.5786 33.6143 82.5786C19.474 82.5786 8.0625 71.167 8.0625 57.0887C8.0625 43.0103 18.1716 31.5367 32.3119 31.5367Z" fill="#ED2929"/>
<path d="M84.0977 47.5378C84.0977 45.8943 82.2681 45.5221 81.0277 45.5221C76.5003 45.5221 74.8258 50.9178 69.0891 50.9178C64.6857 50.9178 61.8019 47.7858 61.8019 44.0027C61.8019 38.3589 67.4456 31.5678 80.8727 31.5678C100.037 31.5678 104.037 45.5531 104.037 52.3442V69.5546C104.037 74.144 105.153 77.7721 108.688 77.7721V78.3923C105.37 80.2839 101.277 82.6096 95.5091 82.6096C88.9041 82.6096 85.6481 76.8418 85.276 71.5702C82.8263 79.2916 77.9268 82.6096 71.4148 82.6096C64.9028 82.6096 58.7939 77.7101 58.7939 69.8647C58.7939 50.8558 84.0977 53.0885 84.0977 47.5688V47.5378ZM81.834 71.7253C83.4775 71.7253 85.214 70.3298 85.214 69.6476V44.7159C85.214 41.2738 85.7102 32.4671 80.8727 32.4671C78.2989 32.4671 77.7407 36.6844 77.7407 37.9868C77.7407 41.6149 79.8804 43.0724 81.834 44.0027C83.5395 44.8089 85.214 45.3981 85.214 47.3827C85.214 52.2202 77.1205 50.0805 77.1205 64.7791C77.1205 68.1592 78.702 71.7563 81.834 71.7563V71.7253Z" fill="#ED2929"/>
<path d="M110.549 36.8084C117.154 36.8084 128.689 33.4283 132.41 31.5367H133.031V40.1884C134.426 36.8704 138.736 31.5367 146.272 31.5367C155.202 31.5367 159.451 38.1108 159.451 44.4057C159.451 51.3209 155.295 55.7553 148.969 55.7553C142.643 55.7553 138.55 51.6 138.55 45.336C138.55 41.7079 140.38 40.9327 140.38 38.731C140.38 37.8007 139.76 37.3976 138.922 37.3976C136.783 37.3976 133.031 40.0954 133.031 44.9329V72.8726C133.031 77.4 134.147 80.0978 137 80.842V81.4622H110.642V80.842C113.526 80.0978 114.611 77.4 114.611 72.8726V45.5531C114.611 39.7853 112.037 37.4596 110.518 37.4596V36.8394L110.549 36.8084Z" fill="#ED2929"/>
<path d="M182.429 31.9089C182.739 31.7849 182.987 31.6608 183.173 31.5368H183.793V72.8416C183.793 77.369 184.909 80.0668 187.762 80.8111V81.4313H161.404V80.8111C164.288 80.0668 165.373 77.369 165.373 72.8416V45.5221C165.373 39.7543 162.8 37.4286 161.28 37.4286V36.8084C167.544 36.8084 178.056 33.6144 182.429 31.9089ZM174.521 8.00049C180.785 8.00049 185.871 13.0861 185.871 19.288C185.871 25.4899 180.785 30.6375 174.521 30.6375C168.257 30.6375 163.234 25.5519 163.234 19.288C163.234 13.024 168.319 8.00049 174.521 8.00049Z" fill="#ED2929"/>
<path d="M210.771 31.9089C211.081 31.7848 211.329 31.6608 211.515 31.5367H212.136V40.7776C214.461 35.8781 220.167 31.5367 227.144 31.5367C239.641 31.5367 241.285 41.4598 241.285 47.8478V72.8415C241.285 77.369 242.401 80.0668 245.254 80.811V81.4312H218.896V80.811C221.78 80.0668 222.865 77.369 222.865 72.8415V45.5221C222.865 42.142 222.183 37.8007 218.338 37.8007C214.492 37.8007 212.074 41.6769 212.074 45.8322V72.8415C212.074 77.369 213.19 80.0668 216.043 80.811V81.4312H189.685V80.811C192.569 80.0668 193.654 77.369 193.654 72.8415V45.5221C193.654 39.7543 191.08 37.4286 189.561 37.4286V36.8084C195.825 36.8084 206.337 33.6144 210.709 31.9089H210.771Z" fill="#ED2929"/>
<path d="M274.279 47.5378C274.279 45.8943 272.449 45.5221 271.209 45.5221C266.681 45.5221 265.007 50.9178 259.27 50.9178C254.867 50.9178 251.983 47.7858 251.983 44.0027C251.983 38.3589 257.627 31.5678 271.054 31.5678C290.218 31.5678 294.218 45.5531 294.218 52.3442V69.5546C294.218 74.144 295.334 77.7721 298.869 77.7721V78.3923C295.551 80.2839 291.458 82.6096 285.69 82.6096C279.085 82.6096 275.829 76.8418 275.457 71.5702C273.007 79.2916 268.108 82.6096 261.596 82.6096C255.084 82.6096 248.975 77.7101 248.975 69.8647C248.975 50.8558 274.279 53.0885 274.279 47.5688V47.5378ZM272.015 71.7253C273.659 71.7253 275.395 70.3298 275.395 69.6476V44.7159C275.395 41.2738 275.891 32.4671 271.054 32.4671C268.48 32.4671 267.922 36.6844 267.922 37.9868C267.922 41.6149 270.061 43.0724 272.015 44.0027C273.721 44.8089 275.395 45.3981 275.395 47.3827C275.395 52.2202 267.302 50.0805 267.302 64.7791C267.302 68.1592 268.883 71.7563 272.015 71.7563V71.7253Z" fill="#ED2929"/>
<path d="M321.103 37.4906V36.8704C327.708 36.8704 339.243 33.4904 342.965 31.5988H343.585V41.3978C344.949 36.6223 350.748 31.5988 356.826 31.5988C371.09 31.5988 374.904 46.1733 374.904 54.3909C374.904 69.7096 365.415 81.4623 350.407 81.4623H343.616V94.8894C343.616 99.4168 344.732 102.115 347.616 102.859V103.479H321.258V102.859C324.142 102.115 325.227 99.4168 325.227 94.8894V45.5531C325.227 39.7853 322.653 37.4596 321.134 37.4596L321.103 37.4906ZM343.585 80.1909C354.128 79.6327 356.702 68.1281 356.702 55.3211C356.702 48.406 353.942 40.2505 348.484 40.2505C344.205 40.2505 343.585 43.5065 343.585 46.8555V80.1909Z" fill="#ED2929"/>
<path d="M380.424 57.0887C380.424 43.0103 390.533 31.5988 404.704 31.5988C418.876 31.5988 426.442 38.762 426.442 47.4137C426.442 55.5072 420.178 59.7245 405.418 59.7245H399.898C403.681 65.8024 410.069 69.0274 417.852 69.0274C420.612 69.0274 423.062 68.4692 425.636 67.4459C425.636 76.0356 416.085 82.5786 405.976 82.5786C391.835 82.5786 380.424 71.1671 380.424 57.0887ZM399.619 58.5461C407.774 58.5461 410.534 51.1348 410.534 44.6848C410.534 39.5372 408.395 32.9322 403.619 32.9322C397.975 32.9322 396.208 40.3435 396.208 44.9949C396.208 50.3906 397.324 54.918 399.278 58.5461H399.65H399.619Z" fill="#ED2929"/>
<path d="M428.303 36.8084C434.908 36.8084 446.443 33.4283 450.164 31.5367H450.784V40.1884C452.211 36.8704 456.49 31.5367 464.026 31.5367C472.956 31.5367 477.205 38.1108 477.205 44.4057C477.205 51.3209 473.049 55.7553 466.723 55.7553C460.397 55.7553 456.304 51.6 456.304 45.336C456.304 41.7079 458.134 40.9327 458.134 38.731C458.134 37.8007 457.514 37.3976 456.676 37.3976C454.537 37.3976 450.784 40.0954 450.784 44.9329V72.8726C450.784 77.4 451.901 80.0978 454.785 80.842V81.4622H428.427V80.842C431.311 80.0978 432.396 77.4 432.396 72.8726V45.5531C432.396 39.7853 429.822 37.4596 428.303 37.4596V36.8394V36.8084Z" fill="#ED2929"/>
<path d="M480.895 57.0887C480.895 43.0103 491.004 31.5988 505.175 31.5988C519.346 31.5988 526.913 38.762 526.913 47.4137C526.913 55.5072 520.649 59.7245 505.888 59.7245H500.369C504.152 65.8024 510.54 69.0274 518.323 69.0274C521.083 69.0274 523.533 68.4692 526.107 67.4459C526.107 76.0356 516.556 82.5786 506.447 82.5786C492.306 82.5786 480.895 71.1671 480.895 57.0887ZM500.09 58.5461C508.245 58.5461 511.005 51.1348 511.005 44.6848C511.005 39.5372 508.865 32.9322 504.09 32.9322C498.446 32.9322 496.679 40.3435 496.679 44.9949C496.679 50.3906 497.795 54.918 499.748 58.5461H500.121H500.09Z" fill="#ED2929"/>
<path d="M549.922 31.9089C550.232 31.7849 550.48 31.6608 550.666 31.5368H551.286V72.8416C551.286 77.369 552.403 80.0668 555.286 80.8111V81.4313H528.928V80.8111C531.812 80.0668 532.898 77.369 532.898 72.8416V45.5221C532.898 39.7543 530.324 37.4286 528.804 37.4286V36.8084C535.068 36.8084 545.611 33.6144 549.953 31.9089H549.922ZM542.014 8.00049C548.278 8.00049 553.364 13.0861 553.364 19.288C553.364 25.4899 548.278 30.6375 542.014 30.6375C535.75 30.6375 530.727 25.5519 530.727 19.288C530.727 13.024 535.812 8.00049 542.014 8.00049Z" fill="#ED2929"/>
<path d="M557.116 36.8084C563.721 36.8084 575.257 33.4283 578.978 31.5367H579.598V40.1884C581.024 36.8704 585.304 31.5367 592.839 31.5367C601.77 31.5367 606.018 38.1108 606.018 44.4057C606.018 51.3209 601.863 55.7553 595.537 55.7553C589.211 55.7553 585.118 51.6 585.118 45.336C585.118 41.7079 586.947 40.9327 586.947 38.731C586.947 37.8007 586.327 37.3976 585.49 37.3976C583.35 37.3976 579.598 40.0954 579.598 44.9329V72.8726C579.598 77.4 580.714 80.0978 583.598 80.842V81.4622H557.24V80.842C560.124 80.0978 561.209 77.4 561.209 72.8726V45.5531C561.209 39.7853 558.635 37.4596 557.116 37.4596V36.8394V36.8084Z" fill="#ED2929"/>
<path d="M635.043 47.5378C635.043 45.8943 633.213 45.5221 631.973 45.5221C627.445 45.5221 625.771 50.9178 620.034 50.9178C615.631 50.9178 612.747 47.7858 612.747 44.0027C612.747 38.3589 618.391 31.5678 631.818 31.5678C650.982 31.5678 654.982 45.5531 654.982 52.3442V69.5546C654.982 74.144 656.098 77.7721 659.633 77.7721V78.3923C656.315 80.2839 652.222 82.6096 646.454 82.6096C639.849 82.6096 636.593 76.8418 636.221 71.5702C633.771 79.2916 628.872 82.6096 622.36 82.6096C615.848 82.6096 609.739 77.7101 609.739 69.8647C609.739 50.8558 635.043 53.0885 635.043 47.5688V47.5378ZM632.748 71.7253C634.392 71.7253 636.128 70.3298 636.128 69.6476V44.7159C636.128 41.2738 636.624 32.4671 631.787 32.4671C629.213 32.4671 628.655 36.6844 628.655 37.9868C628.655 41.6149 630.794 43.0724 632.748 44.0027C634.454 44.8089 636.128 45.3981 636.128 47.3827C636.128 52.2202 628.035 50.0805 628.035 64.7791C628.035 68.1592 629.616 71.7563 632.748 71.7563V71.7253Z" fill="#ED2929"/>
<path d="M367.958 108.007H363.214V106.456H364.578V99.6959H363.214V98.1454H367.958V99.6959H366.594V106.456H367.958V108.007Z" fill="white"/>
<path d="M377.602 108.006L374.036 100.967V108.006H372.082V98.1764H374.687L378.005 104.812V98.1764H379.959V108.006H377.602Z" fill="white"/>
<path d="M388.61 100.006V108.006H386.595V100.006H383.556V98.1764H391.618V100.006H388.579H388.61Z" fill="white"/>
<path d="M395.278 108.006V98.1764H401.665V99.944H397.293V102.053H400.983V103.82H397.293V106.177H401.665V108.006H395.278Z" fill="white"/>
<path d="M411.279 108.006L408.767 104.285H407.743V108.006H405.728V98.1764H409.294C410.565 98.1764 411.496 98.3935 412.085 98.8586C412.674 99.3238 412.953 100.068 412.953 101.091C412.953 101.929 412.767 102.611 412.426 103.107C412.085 103.603 411.558 103.913 410.906 104.068L413.542 108.037H411.247L411.279 108.006ZM410.937 101.184C410.937 100.688 410.813 100.347 410.565 100.161C410.317 99.975 409.883 99.913 409.325 99.913H407.774V102.549H409.232C409.697 102.549 410.038 102.518 410.255 102.425C410.472 102.332 410.658 102.208 410.782 102.022C410.906 101.836 410.937 101.556 410.937 101.184Z" fill="white"/>
<path d="M422.721 108.006L419.155 100.967V108.006H417.201V98.1764H419.806L423.124 104.812V98.1764H425.078V108.006H422.721Z" fill="white"/>
<path d="M428.644 108.006L431.9 98.1764H434.504L437.76 108.006H435.714L435.063 106.022H431.279L430.628 108.006H428.644ZM431.838 104.254H434.473L433.14 100.192L431.807 104.254H431.838Z" fill="white"/>
<path d="M445.544 100.006V108.006H443.528V100.006H440.489V98.1764H448.552V100.006H445.513H445.544Z" fill="white"/>
<path d="M456.614 108.007H451.87V106.456H453.234V99.6959H451.87V98.1454H456.614V99.6959H455.25V106.456H456.614V108.007Z" fill="white"/>
<path d="M468.739 103.076C468.739 104.782 468.367 106.053 467.654 106.921C466.94 107.758 465.886 108.193 464.491 108.193C463.033 108.193 461.979 107.758 461.297 106.859C460.615 105.96 460.273 104.688 460.273 103.076C460.273 101.463 460.615 100.192 461.297 99.2928C461.979 98.3935 463.064 97.9594 464.491 97.9594C465.917 97.9594 467.034 98.3935 467.716 99.2928C468.398 100.192 468.739 101.432 468.739 103.076ZM466.661 103.076C466.661 101.898 466.506 101.06 466.165 100.533C465.824 100.006 465.266 99.7269 464.491 99.7269C463.715 99.7269 463.157 100.006 462.816 100.533C462.475 101.06 462.32 101.929 462.32 103.076C462.32 104.223 462.475 105.092 462.816 105.619C463.157 106.146 463.715 106.425 464.491 106.425C465.266 106.425 465.824 106.146 466.165 105.619C466.506 105.092 466.661 104.223 466.661 103.076Z" fill="white"/>
<path d="M478.259 108.006L474.693 100.967V108.006H472.739V98.1764H475.344L478.662 104.812V98.1764H480.616V108.006H478.259Z" fill="white"/>
<path d="M484.182 108.006L487.438 98.1764H490.042L493.298 108.006H491.252L490.601 106.022H486.817L486.166 108.006H484.182ZM487.376 104.254H490.011L488.678 100.192L487.345 104.254H487.376Z" fill="white"/>
<path d="M496.865 108.006V98.1764H498.88V106.177H503.004V108.006H496.865Z" fill="white"/>
<path d="M520.153 108.006V101.401L517.796 105.495H516.648L514.323 101.401V108.006H512.4V98.1764H514.726L517.3 102.859L519.873 98.1764H522.137V108.006H520.184H520.153Z" fill="white"/>
<path d="M525.672 108.006L528.928 98.1764H531.533L534.789 108.006H532.743L532.091 106.022H528.308L527.657 108.006H525.672ZM528.866 104.254H531.502L530.169 100.192L528.835 104.254H528.866Z" fill="white"/>
<path d="M543.658 108.006L540.929 103.913L540.34 104.595V108.006H538.324V98.1764H540.34V102.022L543.565 98.1764H545.89L542.231 102.425L546.169 108.037H543.658V108.006Z" fill="white"/>
<path d="M549.767 108.006V98.1764H556.155V99.944H551.782V102.053H555.472V103.82H551.782V106.177H556.155V108.006H549.767Z" fill="white"/>
<path d="M559.752 105.154V103.355H564.186V105.154H559.752Z" fill="white"/>
<path d="M576.218 103.882C576.218 105.433 575.908 106.518 575.287 107.2C574.667 107.882 573.613 108.224 572.186 108.224C570.76 108.224 569.737 107.882 569.086 107.231C568.434 106.58 568.124 105.464 568.124 103.913V98.1764H570.14V103.758C570.14 104.44 570.202 104.937 570.326 105.34C570.45 105.712 570.667 105.991 570.946 106.177C571.225 106.363 571.628 106.456 572.155 106.456C572.931 106.456 573.458 106.239 573.768 105.836C574.078 105.433 574.233 104.75 574.233 103.789V98.1764H576.249V103.913L576.218 103.882Z" fill="white"/>
<path d="M587.846 101.463C587.846 102.642 587.567 103.541 587.009 104.099C586.451 104.657 585.552 104.968 584.28 104.968H582.637V108.006H580.621V98.1764H584.311C585.428 98.1764 586.296 98.4245 586.885 98.9517C587.474 99.4788 587.784 100.316 587.784 101.463H587.846ZM585.769 101.463C585.769 100.905 585.614 100.502 585.304 100.254C584.993 100.006 584.435 99.8819 583.66 99.8819H582.668V103.2H583.474C584.218 103.2 584.714 103.138 584.993 103.045C585.272 102.952 585.49 102.766 585.583 102.518C585.676 102.27 585.769 101.929 585.769 101.463Z" fill="white"/>
<path d="M596.715 108.006L599.971 98.1764H602.576L605.832 108.006H603.785L603.134 106.022H599.351L598.699 108.006H596.715ZM599.909 104.254H602.545L601.211 100.192L599.878 104.254H599.909Z" fill="white"/>
<path d="M617.398 106.363C616.964 106.983 616.468 107.448 615.848 107.758C615.228 108.069 614.483 108.193 613.584 108.193C610.545 108.193 609.026 106.487 609.026 103.076C609.026 101.339 609.398 100.037 610.173 99.1998C610.948 98.3625 612.065 97.9594 613.522 97.9594C614.483 97.9594 615.259 98.1144 615.879 98.4555C616.499 98.7966 616.933 99.1998 617.274 99.7269L615.724 100.936C615.507 100.595 615.29 100.347 615.104 100.192C614.917 100.037 614.7 99.913 614.452 99.851C614.204 99.789 613.925 99.7269 613.584 99.7269C612.778 99.7269 612.158 99.975 611.754 100.502C611.32 101.029 611.134 101.867 611.134 103.076C611.134 104.192 611.32 105.03 611.723 105.588C612.127 106.146 612.747 106.425 613.615 106.425C614.204 106.425 614.638 106.301 614.979 106.084C615.29 105.867 615.6 105.557 615.879 105.185L617.46 106.363H617.398Z" fill="white"/>
<path d="M620.313 108.006L623.569 98.1764H626.174L629.43 108.006H627.383L626.732 106.022H622.949L622.298 108.006H620.313ZM623.507 104.254H626.143L624.81 100.192L623.476 104.254H623.507Z" fill="white"/>
<path d="M640.655 103.076C640.655 104.254 640.5 105.216 640.159 105.929C639.818 106.642 639.353 107.169 638.671 107.51C638.02 107.851 637.089 108.006 635.88 108.006H632.872V98.1764H635.849C637.027 98.1764 637.927 98.3315 638.609 98.6726C639.291 99.0137 639.787 99.5409 640.128 100.254C640.469 100.967 640.624 101.898 640.624 103.107L640.655 103.076ZM638.578 103.076C638.578 102.208 638.485 101.587 638.33 101.153C638.175 100.75 637.865 100.44 637.461 100.254C637.058 100.068 636.469 99.975 635.663 99.975H634.888V106.146H635.663C636.438 106.146 637.058 106.053 637.461 105.867C637.865 105.681 638.144 105.371 638.33 104.968C638.516 104.564 638.578 103.913 638.578 103.045V103.076Z" fill="white"/>
<path d="M644.656 108.006V98.1764H651.044V99.944H646.671V102.053H650.361V103.82H646.671V106.177H651.044V108.006H644.656Z" fill="white"/>
<path d="M662.92 108.006V101.401L660.564 105.495H659.416L657.091 101.401V108.006H655.168V98.1764H657.494L660.067 102.859L662.641 98.1764H664.905V108.006H662.951H662.92Z" fill="white"/>
<path d="M673.432 104.254V108.007H671.417V104.285L668.347 98.1454H670.548L672.471 102.27L674.425 98.1454H676.533L673.463 104.223L673.432 104.254Z" fill="white"/>
<path d="M415.248 126.209V119.604L412.891 123.697H411.744L409.418 119.604V126.209H407.495V116.379H409.821L412.395 121.062L414.969 116.379H417.232V126.209H415.279H415.248Z" fill="white"/>
<path d="M420.767 126.209L424.023 116.379H426.628L429.884 126.209H427.837L427.186 124.225H423.403L422.752 126.209H420.767ZM423.961 122.457H426.597L425.264 118.395L423.93 122.457H423.961Z" fill="white"/>
<path d="M438.753 126.209L436.024 122.116L435.435 122.798V126.209H433.419V116.379H435.435V120.224L438.66 116.379H440.986L437.326 120.627L441.265 126.24H438.753V126.209Z" fill="white"/>
<path d="M444.862 126.209V116.379H451.25V118.147H446.877V120.255H450.567V122.023H446.877V124.38H451.25V126.209H444.862Z" fill="white"/>
<path d="M463.405 122.085C463.405 123.635 463.095 124.721 462.475 125.403C461.855 126.085 460.8 126.426 459.374 126.426C457.948 126.426 456.924 126.085 456.273 125.434C455.622 124.783 455.312 123.666 455.312 122.116V116.379H457.327V121.961C457.327 122.612 457.389 123.139 457.513 123.542C457.638 123.914 457.855 124.194 458.134 124.38C458.413 124.566 458.816 124.659 459.343 124.659C460.118 124.659 460.645 124.442 460.956 124.038C461.266 123.635 461.421 122.953 461.421 121.992V116.379H463.436V122.116L463.405 122.085Z" fill="white"/>
<path d="M475.034 119.666C475.034 120.844 474.755 121.744 474.197 122.302C473.638 122.86 472.739 123.17 471.468 123.17H469.824V126.209H467.809V116.379H471.499C472.615 116.379 473.483 116.627 474.073 117.154C474.693 117.681 474.972 118.519 474.972 119.666H475.034ZM472.987 119.666C472.987 119.108 472.832 118.705 472.522 118.457C472.212 118.209 471.654 118.085 470.879 118.085H469.886V121.403H470.693C471.437 121.403 471.933 121.341 472.212 121.248C472.491 121.155 472.708 120.969 472.801 120.72C472.894 120.472 472.987 120.131 472.987 119.666Z" fill="white"/>
<path d="M485.732 129V115.387H487.438V129H485.732Z" fill="white"/>
<path d="M504.493 126.209V122.023H500.617V126.209H498.601V116.379H500.617V120.193H504.493V116.379H506.508V126.209H504.493Z" fill="white"/>
<path d="M510.044 126.209L513.3 116.379H515.904L519.16 126.209H517.114L516.463 124.225H512.679L512.028 126.209H510.044ZM513.238 122.457H515.873L514.54 118.395L513.207 122.457H513.238Z" fill="white"/>
<path d="M527.161 126.209H522.416V124.659H523.781V117.899H522.416V116.348H527.161V117.899H525.796V124.659H527.161V126.209Z" fill="white"/>
<path d="M536.774 126.209L534.262 122.488H533.239V126.209H531.223V116.379H534.789C536.061 116.379 536.991 116.596 537.58 117.061C538.169 117.526 538.448 118.271 538.448 119.294C538.448 120.131 538.262 120.813 537.921 121.31C537.58 121.806 537.053 122.116 536.402 122.271L539.037 126.24H536.743L536.774 126.209ZM536.464 119.356C536.464 118.86 536.34 118.519 536.092 118.333C535.843 118.178 535.409 118.085 534.851 118.085H533.301V120.72H534.758C535.223 120.72 535.564 120.689 535.781 120.596C535.998 120.503 536.185 120.379 536.309 120.193C536.433 120.007 536.464 119.728 536.464 119.356Z" fill="white"/>
<path d="M549.426 129V115.387H551.131V129H549.426Z" fill="white"/>
<path d="M569.861 123.356C569.861 124.349 569.52 125.062 568.837 125.527C568.155 125.992 567.225 126.209 566.016 126.209H562.325V116.379H565.799C567.07 116.379 567.969 116.565 568.496 116.937C569.055 117.309 569.303 117.899 569.303 118.674C569.303 119.294 569.148 119.79 568.868 120.162C568.558 120.534 568.093 120.782 567.473 120.938C568.31 121.062 568.899 121.31 569.272 121.713C569.644 122.116 569.83 122.674 569.83 123.387L569.861 123.356ZM567.287 119.108C567.287 118.736 567.163 118.488 566.884 118.333C566.605 118.178 566.171 118.116 565.612 118.116H564.341V120.224H565.55C566.14 120.224 566.574 120.131 566.884 119.976C567.163 119.821 567.318 119.511 567.318 119.108H567.287ZM567.814 123.17C567.814 122.736 567.659 122.426 567.38 122.24C567.07 122.054 566.512 121.961 565.705 121.961H564.341V124.411H565.364C566.14 124.411 566.698 124.38 566.977 124.287C567.256 124.194 567.504 124.069 567.628 123.914C567.752 123.728 567.814 123.48 567.814 123.17Z" fill="white"/>
<path d="M573.861 126.209V116.379H580.249V118.147H575.877V120.255H579.567V122.023H575.877V124.38H580.249V126.209H573.861Z" fill="white"/>
<path d="M583.443 126.209L586.699 116.379H589.304L592.56 126.209H590.513L589.862 124.225H586.079L585.427 126.209H583.443ZM586.668 122.457H589.304L587.97 118.395L586.637 122.457H586.668Z" fill="white"/>
<path d="M604.219 122.085C604.219 123.635 603.909 124.721 603.289 125.403C602.669 126.085 601.614 126.426 600.188 126.426C598.762 126.426 597.738 126.085 597.087 125.434C596.436 124.783 596.126 123.666 596.126 122.116V116.379H598.141V121.961C598.141 122.612 598.203 123.139 598.327 123.542C598.451 123.914 598.668 124.194 598.948 124.38C599.227 124.566 599.63 124.659 600.157 124.659C600.932 124.659 601.459 124.442 601.769 124.038C602.08 123.635 602.235 122.953 602.235 121.992V116.379H604.25V122.116L604.219 122.085Z" fill="white"/>
<path d="M612.902 118.209V126.209H610.886V118.209H607.847V116.379H615.91V118.209H612.871H612.902Z" fill="white"/>
<path d="M623.693 122.457V126.209H621.678V122.488L618.608 116.348H620.809L622.732 120.472L624.685 116.348H626.794L623.724 122.426L623.693 122.457Z" fill="white"/>
</g>
</g>
<defs>
<clipPath id="clip0_419_180">
<rect width="676.533" height="129" fill="white"/>
</clipPath>
<clipPath id="clip1_419_180">
<rect width="676.533" height="129" fill="white"/>
</clipPath>
</defs>
</svg>
