<svg width="61" height="64" viewBox="0 0 61 64" fill="none" xmlns="http://www.w3.org/2000/svg">
<ellipse cx="29.5" cy="33" rx="29.5" ry="30" fill="#F2BBF2"/>
<path d="M9.13333 32.8267C9.13333 20.56 17.9333 10.5867 30.2533 10.5867C38.9467 10.5867 47.6933 15.0667 47.6933 23.92C47.6933 30.2667 43.1067 34.16 36.92 34.16C30.7333 34.16 27.0533 30.1067 27.0533 24.72C27.0533 19.6533 29.9333 17.8933 29.9333 14.5867C29.9333 13.04 29.3467 11.76 27.8 11.76C24.28 11.76 22.84 18.2667 22.84 22.3733C22.84 35.76 30.7333 43.2267 41.72 43.2267C44.12 43.2267 46.2533 42.7467 48.4933 41.84C48.4933 49.3067 40.1733 55.0133 31.3733 55.0133C19.0533 55.0133 9.13333 45.0933 9.13333 32.8267Z" fill="#E62E6B"/>
</svg>
