<svg width="29" height="29" viewBox="0 0 29 29" fill="none" xmlns="http://www.w3.org/2000/svg">
<g clip-path="url(#clip0_325_293)">
<path d="M11.8432 14.5238L0.551132 3.23148C-0.183735 2.49696 -0.183735 1.30934 0.551132 0.574817C1.28565 -0.159705 2.47327 -0.159705 3.20779 0.574817L14.5002 11.8672L25.7922 0.574817C26.5271 -0.159705 27.7143 -0.159705 28.4489 0.574817C29.1837 1.30934 29.1837 2.49696 28.4489 3.23148L17.1568 14.5238L28.4489 25.8162C29.1837 26.5507 29.1837 27.7384 28.4489 28.4729C28.0828 28.8393 27.6015 29.0233 27.1205 29.0233C26.6396 29.0233 26.1586 28.8393 25.7922 28.4729L14.5002 17.1805L3.20779 28.4729C2.84139 28.8393 2.36043 29.0233 1.87946 29.0233C1.3985 29.0233 0.917532 28.8393 0.551132 28.4729C-0.183735 27.7384 -0.183735 26.5507 0.551132 25.8162L11.8432 14.5238Z" fill="white"/>
</g>
<defs>
<clipPath id="clip0_325_293">
<rect width="29" height="29" fill="white" transform="matrix(-1 0 0 1 29 0)"/>
</clipPath>
</defs>
</svg>
