<svg xmlns="http://www.w3.org/2000/svg" width="36" height="27" fill="none" viewBox="0 0 36 27"><path fill="#fff" d="M3.05176e-05 13.0908C0.248046 12.5521 0.568021 12.0937 1.17723 11.9738C1.31277 11.9468 1.45319 11.9314 1.59082 11.9314C12.4287 11.9292 23.2667 11.9292 34.1053 11.9307C34.959 11.9307 35.6143 12.5009 35.694 13.2969C35.7771 14.1244 35.2916 14.843 34.5147 15.0206C34.347 15.0586 34.1689 15.0535 33.9956 15.0535C23.3086 15.055 12.6216 15.0477 1.93455 15.0681C1.02004 15.0711 0.361225 14.7969 3.05176e-05 13.8927V13.0908Z"/><path fill="#fff" d="M3.05176e-05 25.0468C0.0454418 24.9518 0.0894558 24.8553 0.136264 24.761C0.401047 24.2237 0.80905 23.9035 1.3973 23.8728C1.64043 23.8604 1.88495 23.867 2.12877 23.867C12.7592 23.867 23.3896 23.867 34.0194 23.867C34.9003 23.867 35.453 24.2617 35.6549 25.0307C35.8756 25.8706 35.344 26.7785 34.5259 26.9364C34.2995 26.9803 34.0641 26.989 33.8328 26.989C23.1793 26.9912 12.5259 26.9861 1.87237 27C0.96764 27.0015 0.322101 26.6901 3.05176e-05 25.7763C3.05176e-05 25.5329 3.05176e-05 25.2902 3.05176e-05 25.0468Z"/><path fill="#fff" d="M0 1.20761C0.328358 0.296789 0.971801 -0.00145664 1.87933 5.3442e-06C12.544 0.0168182 23.2094 0.0102393 33.874 0.0131632C34.1171 0.0131632 34.3673 0.0117012 34.6013 0.0694498C35.2929 0.23904 35.7457 0.938602 35.6968 1.71784C35.6527 2.42325 35.0896 3.03144 34.3959 3.11038C34.2115 3.13158 34.0249 3.13305 33.8391 3.13305C23.1856 3.13378 12.5328 3.12793 1.87933 3.14401C0.973897 3.14547 0.32766 2.84869 0 1.93641V1.20761Z"/></svg>